<svg xmlns="http://www.w3.org/2000/svg" viewBox="0 0 594.95 117.82">
  <g>
    <g>
      <path fill="#857646" d="M34.31,117.82c-7.36,0-13.61-1.15-18.72-3.45-5.12-2.3-9-5.47-11.63-9.52-2.64-4.05-3.96-8.73-3.96-14.06s.94-9.75,2.82-13.91c1.88-4.15,4.66-7.91,8.34-11.28,3.68-3.37,8.19-6.33,13.51-8.89-1.99-1.93-3.75-4.03-5.29-6.31-1.54-2.27-2.76-4.78-3.64-7.52-.89-2.74-1.33-5.76-1.33-9.05,0-6.27,1.45-11.96,4.35-17.08s7.12-9.19,12.65-12.22C36.95,1.52,43.71,0,51.7,0c6.27,0,11.65,1.01,16.14,3.02,4.49,2.01,7.92,4.87,10.3,8.58,2.38,3.71,3.56,8.1,3.56,13.16,0,4.28-.84,8.36-2.51,12.22-1.67,3.87-4.13,7.38-7.36,10.54-3.24,3.16-7.16,5.81-11.75,7.95,3.03,2.51,5.51,5.13,7.44,7.87,1.93,2.74,3.37,5.65,4.31,8.74.94,3.08,1.41,6.42,1.41,10.03,0,6.79-1.62,12.87-4.86,18.25-3.24,5.38-7.78,9.64-13.63,12.77-5.85,3.13-12.67,4.7-20.45,4.7ZM35.1,96.2c2.3,0,4.3-.59,5.99-1.76,1.7-1.17,3.03-2.75,4-4.74.97-1.98,1.45-4.18,1.45-6.58,0-1.78-.29-3.49-.86-5.13-.58-1.64-1.4-3.22-2.47-4.74-1.07-1.51-2.39-2.92-3.96-4.23-2.25,1.36-4.3,3-6.15,4.94-1.85,1.93-3.33,4.07-4.43,6.42-1.1,2.35-1.64,4.86-1.64,7.52s.8,4.71,2.39,6.15c1.59,1.44,3.49,2.15,5.68,2.15ZM45.91,43.09c2.09-1.2,3.81-2.58,5.17-4.15,1.36-1.57,2.38-3.25,3.05-5.05s1.02-3.62,1.02-5.44c0-2.35-.59-4.06-1.76-5.13-1.17-1.07-2.6-1.61-4.27-1.61-1.57,0-2.96.5-4.19,1.49-1.23.99-2.21,2.34-2.94,4.04-.73,1.7-1.1,3.64-1.1,5.84,0,1.88.48,3.75,1.45,5.6.96,1.85,2.15,3.33,3.56,4.43Z"/>
      <path fill="#857646" d="M115.93,117.82c-7.47,0-13.59-1.5-18.37-4.5-4.78-3-8.3-7.26-10.58-12.77-2.27-5.51-3.41-12-3.41-19.47,0-1.78.09-3.8.27-6.07.18-2.27.47-4.71.86-7.32s.9-5.3,1.53-8.07c.63-2.77,1.36-5.54,2.19-8.3,1.83-6.53,4.26-12.85,7.29-18.96,3.03-6.11,6.87-11.59,11.52-16.45,4.65-4.86,10.27-8.71,16.88-11.55C130.72,1.5,138.51.08,147.5.08c3.34,0,6.74.22,10.18.67,3.45.44,6.58,1.06,9.4,1.84l-4.94,23.19c-2.14-.73-4.48-1.3-7.01-1.72-2.53-.42-5.03-.63-7.48-.63-6.32,0-11.58,1.05-15.79,3.13-4.2,2.09-7.69,5.2-10.46,9.32-2.77,4.13-5.12,9.27-7.05,15.43h.47c1.51-2.09,3.26-4.01,5.25-5.76,1.98-1.75,4.28-3.15,6.89-4.19,2.61-1.04,5.56-1.57,8.85-1.57,5.07,0,9.27,1.12,12.61,3.37,3.34,2.25,5.84,5.48,7.48,9.71,1.64,4.23,2.47,9.35,2.47,15.35,0,4.7-.54,9.41-1.61,14.14-1.07,4.73-2.72,9.22-4.94,13.47-2.22,4.26-5.03,8.03-8.42,11.32-3.4,3.29-7.38,5.89-11.95,7.79-4.57,1.91-9.75,2.86-15.55,2.86ZM117.73,94.24c2.09,0,3.89-.82,5.41-2.47,1.51-1.65,2.74-3.71,3.68-6.19.94-2.48,1.63-5,2.08-7.56.44-2.56.67-4.75.67-6.58,0-2.71-.47-4.82-1.41-6.31-.94-1.49-2.48-2.23-4.62-2.23-1.31,0-2.53.26-3.68.78-1.15.52-2.21,1.33-3.17,2.43-.97,1.1-1.79,2.48-2.47,4.15-.89,1.93-1.58,4.23-2.08,6.89-.5,2.66-.74,5.04-.74,7.13,0,1.62.14,3.05.43,4.31.29,1.25.71,2.3,1.25,3.13.55.84,1.21,1.46,2,1.88.78.42,1.67.63,2.66.63Z"/>
      <path fill="#857646" d="M192.12,116.25L216.32,1.72h37.68l.78,73.72h.55L288.08,1.72h39.17l-24.44,114.53h-26.79l10.18-47.47c.99-4.7,1.89-8.67,2.7-11.91.81-3.24,1.54-5.95,2.19-8.15.65-2.19,1.16-4.07,1.53-5.64h-.55l-33.06,73.17h-25.38l-.63-72.7h-.55c-.58,3.76-1.14,7.35-1.68,10.77-.55,3.42-1.07,6.62-1.57,9.6-.5,2.98-1.03,5.75-1.61,8.3l-9.32,44.03h-26.17Z"/>
      <path fill="#857646" d="M320.5,116.25L344.78,1.72h28.67l-24.29,114.53h-28.67Z"/>
      <path fill="#857646" d="M366.7,116.25L390.91,1.72h28.67l-19.11,90.32h32.12l-5.01,24.21h-60.87Z"/>
      <path fill="#857646" d="M437.04,116.25L461.24,1.72h60.01l-5.01,23.97h-31.26l-4.07,19.35h29.06l-5.25,23.97h-29.06l-4.86,22.88h31.33l-5.17,24.36h-59.93Z"/>
      <path fill="#857646" d="M539.49,117.82c-5.69,0-10.93-.6-15.71-1.8-4.78-1.2-9.02-3.11-12.73-5.72l2.9-27.34c3.45,2.46,7.6,4.69,12.46,6.7,4.86,2.01,9.4,3.02,13.63,3.02,1.57,0,3.04-.18,4.43-.55,1.38-.37,2.61-.93,3.68-1.68,1.07-.76,1.92-1.77,2.55-3.06.63-1.28.94-2.83.94-4.66s-.41-3.45-1.21-5.01c-.81-1.57-2.04-3.16-3.68-4.78-1.64-1.62-3.7-3.45-6.15-5.48-3.4-2.82-6.27-5.73-8.62-8.73s-4.13-6.31-5.33-9.91c-1.2-3.6-1.8-7.68-1.8-12.22,0-5.17.87-9.96,2.62-14.38,1.75-4.41,4.32-8.29,7.72-11.63,3.39-3.34,7.57-5.93,12.53-7.75,4.96-1.83,10.63-2.74,17-2.74,5.22,0,10.47.72,15.75,2.15,5.27,1.44,10.11,3.56,14.49,6.38l-11.28,23.66c-3.4-2.19-6.8-3.98-10.22-5.37-3.42-1.38-6.54-2.08-9.36-2.08-1.67,0-3.13.24-4.39.71-1.25.47-2.29,1.11-3.09,1.92s-1.42,1.79-1.84,2.94c-.42,1.15-.63,2.4-.63,3.76,0,1.46.3,2.91.9,4.35.6,1.44,1.71,3.03,3.33,4.78,1.62,1.75,3.97,3.8,7.05,6.15,3.81,2.82,6.88,5.77,9.21,8.85,2.32,3.08,4.01,6.38,5.05,9.91,1.04,3.53,1.57,7.46,1.57,11.79,0,5.28-.89,10.21-2.66,14.81-1.78,4.6-4.4,8.62-7.87,12.06-3.47,3.45-7.82,6.14-13.04,8.07-5.22,1.93-11.28,2.9-18.17,2.9Z"/>
    </g>
  </g>
</svg>